<svg version="1.1" id="Capa_1" xmlns="http://www.w3.org/2000/svg" x="0" y="0" viewBox="0 0 120 18.7" xml:space="preserve" class="svg svg-white"><style>.st0{fill:#fff}</style><path class="st0" d="M32.8 4.3h3.6L35.3 10v.4c0 .2.1.4.2.6.2.3.4.4.8.4.8 0 1.4-.7 1.5-1.5l1-5.6h3.6l-1.9 10.1h-3.3l.2-.9h-.2c-.6.7-1.6 1.2-2.8 1.2-1.1 0-1.9-.3-2.4-.9-.4-.5-.6-1-.6-1.7 0-.2 0-.5.1-.8l1.3-7zM41.6 18.7l2.7-14.4h3.5l-.2.9h.2c.5-.6 1.4-1.2 2.7-1.2 2.2 0 3.6 1.5 3.6 3.8 0 3.6-2.5 6.7-5.6 6.7-1.3 0-2-.5-2.3-1.2H46l-1 5.3h-3.4zm6.7-7.3c.6 0 1.1-.2 1.6-.7.4-.5.6-1.1.6-1.8 0-1-.6-1.6-1.5-1.6-.6 0-1.1.2-1.6.7-.4.5-.6 1.1-.6 1.8 0 1 .6 1.6 1.5 1.6zM65.5 8c0-.4-.1-.9-.2-1.2-.5-1.6-1.9-2.7-4.1-2.7-3.8 0-6.3 2.8-6.3 6.3 0 1.2.4 2.2 1.2 3.1.8.8 1.8 1.2 3.1 1.2 1.4 0 2.7-.3 3.7-.9.9-.5 1.5-1.3 1.9-2.2h-3.4c-.4.2-.9.4-1.6.4-.5 0-.9-.2-1.2-.5-.2-.3-.4-.6-.4-1v-.2h7.1l.2-.9c.1-.3.1-.7.1-1-.1-.2-.1-.3-.1-.4zm-6.9.1c.3-.7 1.1-1.4 2.2-1.4s1.6.6 1.6 1.4h-3.8zM66.4 14.4l1.9-10.1h3.3l-.3 1.4h.2c.5-.8 1.6-1.5 2.8-1.5h1l-.6 3.3h-1.3c-1.3 0-2.4.9-2.7 2.5l-.8 4.3h-3.5zM76.1 18.7L78.2 7h-1.6l.5-2.7h1.6l.1-.4c.2-1.1.8-2 1.6-2.7.9-.7 1.9-1 3.1-1h1.8l-.5 2.9h-1.2c-.7 0-1.2.4-1.3 1v.2h2.3L84 7.1h-2.3l-2.1 11.7h-3.5zM86.4 4.3H90L88.9 10c-.2.8.2 1.4 1 1.4s1.4-.7 1.5-1.5l1-5.6H96l-1.9 10.1h-3.3l.2-.9h-.2c-.6.7-1.6 1.2-2.8 1.2-2.1 0-3.3-1.4-2.9-3.4l1.3-7zM88.7.6c.4-.4.8-.6 1.3-.6.8 0 1.3.5 1.3 1.2 0 1.1-.8 1.9-1.9 1.9-.8 0-1.3-.5-1.3-1.2.1-.5.3-1 .6-1.3zM94 0c.8 0 1.3.5 1.3 1.2 0 .5-.2.9-.6 1.3-.4.4-.8.5-1.3.5-.8 0-1.3-.5-1.3-1.2C92.2.8 93 0 94 0zM102.3 4.1c1.2 0 2.1.6 2.4 1.2h.2l.9-5.1h3.6l-1.9 10.1v.3c0 .5.2.7.7.7h.3l-.6 3.1h-1.6c-1.2 0-1.9-.4-2-1.2v-.1h-.1c-.7.8-1.9 1.5-3.5 1.5-2.4 0-3.8-1.6-3.8-4-.1-3.6 2.5-6.6 5.4-6.5zm-.3 7.3c.6 0 1.1-.2 1.6-.7.4-.5.6-1.1.6-1.8 0-1-.6-1.6-1.5-1.6-.6 0-1.1.2-1.6.7-.4.5-.6 1.1-.6 1.8 0 1 .6 1.6 1.5 1.6zM23.7 11.2c0 .3.1.5.3.6.2.2.5.2.9.2.8 0 1.3-.3 1.3-.7 0-1.2-4.9-.3-4.9-3.1 0-1.2.5-2.2 1.4-3 .9-.8 2.2-1.2 3.6-1.2 1.3 0 2.3.3 3 .9.5.5.8 1.1.8 1.9v.5h-3v.1c0-.2-.1-.5-.3-.6-.2-.2-.5-.2-.9-.2-.8 0-1.3.3-1.3.8 0 1.1 5.1.4 5.1 3.1 0 1.3-.5 2.3-1.4 3.1-.9.8-2.2 1.2-3.9 1.2-1.5 0-2.6-.3-3.2-.9-.5-.5-.7-1.1-.7-1.8 0-.2 0-.5.1-.7h3.1zM113.6 11.2c0 .3.1.5.3.6.2.2.5.2.9.2.8 0 1.3-.3 1.3-.7 0-1.2-4.9-.3-4.9-3.1 0-1.2.5-2.2 1.4-3 .9-.8 2.2-1.2 3.6-1.2 1.3 0 2.3.3 3 .9.5.5.8 1.1.8 1.9v.5h-3v.1c0-.2-.1-.5-.3-.6-.2-.2-.5-.2-.9-.2-.8 0-1.3.3-1.3.8 0 1.1 5.1.4 5.1 3.1 0 1.3-.5 2.3-1.4 3.1-.9.8-2.2 1.2-3.9 1.2-1.5 0-2.6-.3-3.2-.9-.5-.5-.7-1.1-.7-1.8 0-.2 0-.5.1-.7h3.1z"/><g><path class="st0" d="M7.1 14.3c.1-.2.3-.7.3-.7.3-.9.9-3.5-.7-5.4C4.7 5.8 1 4.6.4 4.4c-.1 0-.3-.1-.3-.1v.3S-.2 8 1.3 11c1.4 2.8 4.5 3.2 5 3.3-.1.1.5.1.8 0zM11.4 14.4c.5-.1 3.6-.5 5-3.3 1.5-3 1.2-6.4 1.2-6.4v-.3l-.3.1c-.6.2-4.3 1.4-6.3 3.8-1.6 1.9-1 4.5-.7 5.4 0 0 .2.5.3.7h.8z"/></g></svg>